<svg width="18" height="28" viewBox="0 0 18 28" fill="none" xmlns="http://www.w3.org/2000/svg">
<path d="M1.75 6.99987C1.74965 7.67224 1.95784 8.32817 2.34589 8.87727C2.73395 9.42636 3.28275 9.84158 3.91667 10.0657L4.25 10.1836V9.83V1C4.25 0.801088 4.32902 0.610322 4.46967 0.46967C4.61032 0.329018 4.80109 0.25 5 0.25C5.19891 0.25 5.38968 0.329018 5.53033 0.46967C5.67098 0.610322 5.75 0.801088 5.75 1V9.83V10.1836L6.08333 10.0657C6.71725 9.84158 7.26605 9.42636 7.65411 8.87727C8.04216 8.32817 8.25035 7.67224 8.25 6.99987V1C8.25 0.801088 8.32902 0.610322 8.46967 0.46967C8.61032 0.329018 8.80109 0.25 9 0.25C9.19891 0.25 9.38968 0.329018 9.53033 0.46967C9.67098 0.610322 9.75 0.801088 9.75 1V7V7.00005C9.75022 8.09507 9.37211 9.15654 8.67964 10.0048C7.98718 10.8531 7.0229 11.436 5.95 11.6551L5.75 11.6959V11.9V27C5.75 27.1989 5.67098 27.3897 5.53033 27.5303C5.38968 27.671 5.19891 27.75 5 27.75C4.80109 27.75 4.61032 27.671 4.46967 27.5303C4.32902 27.3897 4.25 27.1989 4.25 27V11.9V11.6959L4.05 11.6551C2.9771 11.436 2.01282 10.8531 1.32036 10.0048C0.627894 9.15654 0.249777 8.09507 0.25 7.00005V7V1C0.25 0.801088 0.329018 0.610322 0.46967 0.46967C0.610322 0.329018 0.801088 0.25 1 0.25C1.19891 0.25 1.38968 0.329018 1.53033 0.46967C1.67098 0.610322 1.75 0.801088 1.75 1V6.99987ZM1.75 6.99987L2 7H1.75V6.99987ZM16.25 2.23V1.84595L15.8988 2.00139C15.503 2.17661 15.1196 2.44079 14.7811 2.78136C14.1357 3.42478 13.75 4.24512 13.75 5V12V12.25H14H16H16.25V12V2.23ZM16.25 14V13.75H16H13C12.8011 13.75 12.6103 13.671 12.4697 13.5303C12.329 13.3897 12.25 13.1989 12.25 13V5C12.25 3.75558 12.8636 2.57597 13.7187 1.71881C14.5759 0.863637 15.7556 0.25 17 0.25C17.1989 0.25 17.3897 0.329018 17.5303 0.46967C17.671 0.610322 17.75 0.801087 17.75 1V27C17.75 27.1989 17.671 27.3897 17.5303 27.5303C17.3897 27.671 17.1989 27.75 17 27.75C16.8011 27.75 16.6103 27.671 16.4697 27.5303C16.329 27.3897 16.25 27.1989 16.25 27V14Z" fill="#434242" stroke="white" stroke-width="0.5"/>
</svg>
