<svg width="28" height="28" viewBox="0 0 28 28" fill="none" xmlns="http://www.w3.org/2000/svg">
<path d="M14 5.6875C14.7249 5.6875 15.3125 5.09987 15.3125 4.375C15.3125 3.65013 14.7249 3.0625 14 3.0625C13.2751 3.0625 12.6875 3.65013 12.6875 4.375C12.6875 5.09987 13.2751 5.6875 14 5.6875Z" stroke="#434242" stroke-width="1.5" stroke-linecap="round" stroke-linejoin="round"/>
<path d="M14 15.3125C14.7249 15.3125 15.3125 14.7249 15.3125 14C15.3125 13.2751 14.7249 12.6875 14 12.6875C13.2751 12.6875 12.6875 13.2751 12.6875 14C12.6875 14.7249 13.2751 15.3125 14 15.3125Z" stroke="#434242" stroke-width="1.5" stroke-linecap="round" stroke-linejoin="round"/>
<path d="M14 24.9375C14.7249 24.9375 15.3125 24.3499 15.3125 23.625C15.3125 22.9001 14.7249 22.3125 14 22.3125C13.2751 22.3125 12.6875 22.9001 12.6875 23.625C12.6875 24.3499 13.2751 24.9375 14 24.9375Z" stroke="#434242" stroke-width="1.5" stroke-linecap="round" stroke-linejoin="round"/>
</svg>
