<svg width="23" height="29" viewBox="0 0 23 29" fill="none" xmlns="http://www.w3.org/2000/svg">
<g clip-path="url(#clip0_101_78)">
<path d="M15.2135 0.15225C15.2121 0.150891 15.2104 0.150211 15.2087 0.149531C15.2071 0.148851 15.2054 0.148172 15.204 0.146812C15.1455 0.0890032 15.0717 0.0470697 14.9902 0.025375L22.9721 8.59481C22.9741 8.6017 22.975 8.60564 22.975 8.60938V27.6406C22.975 28.375 22.3426 28.975 21.5625 28.975H1.4375C0.657431 28.975 0.025 28.375 0.025 27.6406V1.35938C0.025 0.625011 0.657431 0.025 1.4375 0.025H14.8542C14.8655 0.025 14.8768 0.0271375 14.8898 0.0302987C14.8928 0.0310162 14.8959 0.0318152 14.8992 0.0326493C14.9095 0.0352576 14.9211 0.0382084 14.9326 0.0400805L14.9326 0.0400857L14.9331 0.0401585C14.9357 0.0405332 14.9383 0.0408856 14.9407 0.0412259C14.9569 0.0434709 14.9692 0.0451899 14.9831 0.0493297L14.9831 0.0493404L14.9838 0.0495324C15.0611 0.0701359 15.1311 0.10992 15.1864 0.164592L15.1864 0.164597L15.1868 0.164978C15.1909 0.168905 15.1955 0.171101 15.1979 0.17211M15.2135 0.15225L15.1953 0.169372L15.1979 0.17211M15.2135 0.15225L22.8802 8.3085L15.2135 0.15225ZM15.1979 0.17211L22.861 8.32454M15.1979 0.17211L22.861 8.32454M22.861 8.32454C22.8612 8.32495 22.8616 8.32613 22.8626 8.3292C22.8639 8.33325 22.8665 8.3423 22.8733 8.35061L22.861 8.32454ZM22.9546 8.51372L22.9546 8.51369C22.9405 8.45449 22.9128 8.39884 22.8734 8.35066L22.9546 8.51372ZM22.9546 8.51372C22.956 8.51938 22.9573 8.52458 22.9586 8.52948C22.9622 8.54353 22.9652 8.55519 22.9664 8.56876L22.9546 8.51372ZM15.3515 1.62772L15.3083 1.58175V1.64484V7.47656C15.3083 7.63268 15.378 7.80754 15.4734 7.94296C15.5213 8.01089 15.5764 8.06994 15.6339 8.11224C15.691 8.15433 15.7525 8.18125 15.8125 8.18125H21.4542H21.512L21.4724 8.13913L15.3515 1.62772ZM14.4 0.90625V0.88125H14.375H1.4375C1.30422 0.88125 1.17614 0.931303 1.0815 1.0208C0.98681 1.11035 0.933333 1.2321 0.933333 1.35938V27.6406C0.933333 27.9095 1.15669 28.1187 1.4375 28.1187H21.5625C21.6958 28.1187 21.8239 28.0687 21.9185 27.9792C22.0132 27.8897 22.0667 27.7679 22.0667 27.6406V9.0625V9.0375H22.0417H15.8125C15.4168 9.0375 15.0639 8.8291 14.8092 8.52831C14.5543 8.2274 14.4 7.8365 14.4 7.47656V0.90625Z" fill="#434242" stroke="white" stroke-width="0.05"/>
<path d="M17.7292 12.6375H5.27082C5.15613 12.6375 5.04665 12.5944 4.96636 12.5185C4.88615 12.4426 4.84166 12.3404 4.84166 12.2344C4.84166 12.1284 4.88615 12.0261 4.96636 11.9503C5.04665 11.8744 5.15613 11.8312 5.27082 11.8312H17.7292C17.8439 11.8312 17.9533 11.8744 18.0336 11.9503C18.1138 12.0261 18.1583 12.1284 18.1583 12.2344C18.1583 12.3404 18.1138 12.4426 18.0336 12.5185C17.9533 12.5944 17.8439 12.6375 17.7292 12.6375ZM17.7292 16.2625H5.27082C5.15613 16.2625 5.04665 16.2194 4.96636 16.1435C4.88615 16.0676 4.84166 15.9654 4.84166 15.8594C4.84166 15.7534 4.88615 15.6511 4.96636 15.5753C5.04665 15.4994 5.15613 15.4563 5.27082 15.4563H17.7292C17.8439 15.4563 17.9533 15.4994 18.0336 15.5753C18.1138 15.6511 18.1583 15.7534 18.1583 15.8594C18.1583 15.9654 18.1138 16.0676 18.0336 16.1435C17.9533 16.2194 17.8439 16.2625 17.7292 16.2625ZM11.0208 9.0125H5.27082C5.15613 9.0125 5.04665 8.96939 4.96636 8.89345C4.88615 8.81761 4.84166 8.71536 4.84166 8.60938C4.84166 8.50339 4.88615 8.40114 4.96636 8.3253C5.04665 8.24936 5.15613 8.20625 5.27082 8.20625H11.0208C11.1355 8.20625 11.245 8.24936 11.3253 8.3253C11.4055 8.40114 11.45 8.50339 11.45 8.60938C11.45 8.71536 11.4055 8.81761 11.3253 8.89345C11.245 8.96939 11.1355 9.0125 11.0208 9.0125ZM17.7292 19.8875H5.27082C5.15613 19.8875 5.04665 19.8444 4.96636 19.7685C4.88615 19.6926 4.84166 19.5904 4.84166 19.4844C4.84166 19.3784 4.88615 19.2761 4.96636 19.2003C5.04665 19.1244 5.15613 19.0813 5.27082 19.0813H17.7292C17.8439 19.0813 17.9533 19.1244 18.0336 19.2003C18.1138 19.2761 18.1583 19.3784 18.1583 19.4844C18.1583 19.5904 18.1138 19.6926 18.0336 19.7685C17.9533 19.8444 17.8439 19.8875 17.7292 19.8875ZM17.7292 23.5125H5.27082C5.15613 23.5125 5.04665 23.4694 4.96636 23.3935C4.88615 23.3176 4.84166 23.2154 4.84166 23.1094C4.84166 23.0034 4.88615 22.9011 4.96636 22.8253C5.04665 22.7494 5.15613 22.7063 5.27082 22.7063H17.7292C17.8439 22.7063 17.9533 22.7494 18.0336 22.8253C18.1138 22.9011 18.1583 23.0034 18.1583 23.1094C18.1583 23.2154 18.1138 23.3176 18.0336 23.3935C17.9533 23.4694 17.8439 23.5125 17.7292 23.5125Z" fill="#434242" stroke="white" stroke-width="0.1"/>
</g>
<defs>
<clipPath id="clip0_101_78">
<rect width="23" height="29" fill="white"/>
</clipPath>
</defs>
</svg>
