<svg width="32" height="31" viewBox="0 0 32 31" fill="none" xmlns="http://www.w3.org/2000/svg">
<path d="M19 13.325V9.7M13 13.325V9.7M16 30C24.2845 30 31 23.5084 31 15.5C31 7.49165 24.2845 1 16 1C7.7155 1 1 7.49165 1 15.5C1 23.5084 7.7155 30 16 30Z" stroke="#434242" stroke-linecap="round" stroke-linejoin="round"/>
<path d="M16 30V21.1304M16 21.1304C17.5913 21.1304 19.1174 20.5075 20.2426 19.3985C21.3679 18.2896 22 16.7856 22 15.2174V13H10V15.2174C10 16.7856 10.6321 18.2896 11.7574 19.3985C12.8826 20.5075 14.4087 21.1304 16 21.1304Z" stroke="#434242" stroke-linecap="round" stroke-linejoin="round"/>
</svg>
